<svg width="20" height="20" viewBox="0 0 20 20" fill="none" xmlns="http://www.w3.org/2000/svg">
<path d="M2.18366 12.1834C0.979462 12.1834 0 11.2044 0 10.0001C0 8.79633 0.979462 7.81671 2.18366 7.81671C3.38786 7.81671 4.36733 8.79628 4.36733 10.0001C4.36727 11.2044 3.38786 12.1834 2.18366 12.1834Z" fill="white"/>
<path d="M9.87727 12.1834C8.67307 12.1834 7.6936 11.2044 7.6936 10.0001C7.6936 8.79633 8.67307 7.81671 9.87727 7.81671C11.0813 7.81671 12.0609 8.79628 12.0609 10.0001C12.0609 11.2044 11.0813 12.1834 9.87727 12.1834Z" fill="white"/>
<path d="M17.8164 12.1834C16.6124 12.1834 15.6327 11.2044 15.6327 10.0001C15.6327 8.79633 16.6123 7.81671 17.8164 7.81671C19.0204 7.81671 20 8.79628 20 10.0001C20 11.2044 19.0204 12.1834 17.8164 12.1834Z" fill="white"/>
</svg>
