<svg width="24" height="24" viewBox="0 0 24 24" fill="none" xmlns="http://www.w3.org/2000/svg">
<path d="M12 9.375C14.0711 9.375 15.75 7.69607 15.75 5.625C15.75 3.55393 14.0711 1.875 12 1.875C9.92893 1.875 8.25 3.55393 8.25 5.625C8.25 7.69607 9.92893 9.375 12 9.375Z" fill="white"/>
<path d="M19.5 18.375V19.875C19.4986 20.0738 19.4207 20.2645 19.2825 20.4075C17.61 22.08 12.57 22.125 12 22.125C10.0943 22.1363 8.19706 21.871 6.36752 21.3375C6.67719 21.2765 6.96628 21.1378 7.20766 20.9345C7.44904 20.7311 7.63481 20.4698 7.74752 20.175C7.83222 19.96 7.87548 19.731 7.87502 19.5C7.87405 19.0626 7.7208 18.6392 7.4416 18.3025C7.1624 17.9658 6.77468 17.7369 6.34502 17.655C6.30676 17.4571 6.23579 17.267 6.13502 17.0925C6.0016 16.8499 5.816 16.64 5.59163 16.4779C5.36725 16.3158 5.10969 16.2055 4.83752 16.155C5.36855 14.4408 6.49665 12.9739 8.01701 12.0206C9.53737 11.0673 11.3492 10.6908 13.1235 10.9594C14.8978 11.228 16.5169 12.124 17.6869 13.4847C18.8569 14.8453 19.5002 16.5805 19.5 18.375Z" fill="white"/>
<path d="M6.34503 21.33C6.34749 21.3323 6.35045 21.3341 6.3537 21.3352C6.35694 21.3363 6.36039 21.3366 6.36378 21.3362C6.35753 21.3362 6.35128 21.3425 6.34503 21.3425V21.33Z" fill="white"/>
<path d="M6.75 19.5C6.74943 19.6987 6.67022 19.8892 6.5297 20.0297C6.38917 20.1702 6.19874 20.2494 6 20.25H5.25V21C5.25 21.1989 5.17098 21.3897 5.03033 21.5303C4.88968 21.671 4.69891 21.75 4.5 21.75C4.30109 21.75 4.11032 21.671 3.96967 21.5303C3.82902 21.3897 3.75 21.1989 3.75 21V20.25H3C2.80109 20.25 2.61032 20.171 2.46967 20.0303C2.32902 19.8897 2.25 19.6989 2.25 19.5C2.25 19.3011 2.32902 19.1103 2.46967 18.9697C2.61032 18.829 2.80109 18.75 3 18.75H3.75V18C3.75 17.8011 3.82902 17.6103 3.96967 17.4697C4.11032 17.329 4.30109 17.25 4.5 17.25C4.69891 17.25 4.88968 17.329 5.03033 17.4697C5.17098 17.6103 5.25 17.8011 5.25 18V18.75H6C6.19874 18.7506 6.38917 18.8298 6.5297 18.9703C6.67022 19.1108 6.74943 19.3013 6.75 19.5Z" fill="white"/>
</svg>
