<svg width="24" height="24" viewBox="0 0 24 24" fill="none" xmlns="http://www.w3.org/2000/svg">
<path fill-rule="evenodd" clip-rule="evenodd" d="M11.1667 3.66681H7.00002C5.15919 3.66681 3.66669 5.15931 3.66669 7.00014V17.0001C3.66669 18.841 5.15919 20.3335 7.00002 20.3335H17C18.8409 20.3335 20.3334 18.841 20.3334 17.0001C20.3334 15.1076 20.3334 12.8335 20.3334 12.8335C20.3334 12.3735 19.96 12.0001 19.5 12.0001C19.04 12.0001 18.6667 12.3735 18.6667 12.8335V17.0001C18.6667 17.9201 17.92 18.6668 17 18.6668C14.225 18.6668 9.77419 18.6668 7.00002 18.6668C6.07919 18.6668 5.33335 17.9201 5.33335 17.0001C5.33335 14.2251 5.33335 9.77431 5.33335 7.00014C5.33335 6.07931 6.07919 5.33348 7.00002 5.33348H11.1667C11.6267 5.33348 12 4.96014 12 4.50014C12 4.04014 11.6267 3.66681 11.1667 3.66681ZM17.4884 5.33348H14.5C14.04 5.33348 13.6667 4.96014 13.6667 4.50014C13.6667 4.04014 14.04 3.66681 14.5 3.66681H19.5C19.96 3.66681 20.3334 4.04014 20.3334 4.50014V9.50014C20.3334 9.96014 19.96 10.3335 19.5 10.3335C19.04 10.3335 18.6667 9.96014 18.6667 9.50014V6.51181L12.5892 12.5893C12.2642 12.9143 11.7359 12.9143 11.4109 12.5893C11.085 12.2643 11.085 11.736 11.4109 11.411L17.4884 5.33348Z" fill="white"/>
</svg>
